<?xml version="1.0" encoding="UTF-8"?>
<!DOCTYPE svg PUBLIC "-//W3C//DTD SVG 1.1//EN" "http://www.w3.org/Graphics/SVG/1.1/DTD/svg11.dtd">
<!-- Creator: CorelDRAW 2020 (64-Bit) -->
<svg xmlns="http://www.w3.org/2000/svg" xml:space="preserve" width="7.4666mm" height="7.4666mm" version="1.1" style="shape-rendering:geometricPrecision; text-rendering:geometricPrecision; image-rendering:optimizeQuality; fill-rule:evenodd; clip-rule:evenodd"
viewBox="0 0 846.66 846.66"
 xmlns:xlink="http://www.w3.org/1999/xlink"
 xmlns:xodm="http://www.corel.com/coreldraw/odm/2003">
 <defs>
  <style type="text/css">
   <![CDATA[
    .fil0 {fill:white}
   ]]>
  </style>
 </defs>
 <g id="Capa_x0020_1">
  <metadata id="CorelCorpID_0Corel-Layer"/>
  <path class="fil0" d="M219.87 461.53l-40.52 40.52c-1.59,3.26 -6.88,8.58 -9.63,11.95l-27.37 36.27c-1.84,3.97 -6.23,9.9 -8.64,13.81 -2.44,3.96 -5.49,10.1 -8.01,13.6 -1.4,3.44 -3.95,7.98 -5.75,11.57 -1.02,2.05 -1.98,3.94 -3.02,6.09 -1.24,2.56 -1.25,3.42 -3.44,4.99 -0.12,1.42 -8.29,22.66 -9.64,25.07 -1.19,6.65 -3.04,10.39 -3.55,11.36l-0.73 1.16c0.23,2.97 -1.9,10.68 -2.58,14.44 -5.1,28.15 2.1,41.52 1.75,46.61 1.55,1.64 1.17,1.18 2.03,3.33 0.5,1.24 0.58,1.92 1.04,3.11 1.07,2.75 1.76,3.02 2.37,5.78 7.32,12.92 13.71,22.84 23.38,32.16 4.69,4.51 8.81,8.13 14.55,12.77 4.87,3.95 11.37,7.67 15.97,11.45 3.16,1.22 8.41,4.89 12.07,6.89 104.51,57.18 231.51,51.32 237.97,53.76l32.44 0c2.57,-0.97 22.69,-1.05 27.63,-1.47 9.18,-0.78 18.18,-1.32 27.32,-1.96 37.17,-2.59 86.67,-12.83 121.87,-24.59l21.38 -7.58c4.44,-1.66 8.45,-3.64 13.03,-5.27 0.17,-0.1 0.41,-0.23 0.53,-0.28l2.8 -1.34c1.21,-0.54 1.88,-0.84 2.83,-1.32 5.57,-2.81 11.43,-6.32 17.23,-8.23 0.7,-1.14 17.3,-10.85 19.77,-12.65 3.68,-2.69 6.28,-4.5 9.51,-7.04 3.07,-2.41 5.91,-5.27 8.76,-6.92 0.65,-1.07 11.38,-11.8 12.46,-12.46 1.65,-2.76 3.42,-4.38 5.41,-6.94 1.85,-2.38 2.93,-4.12 4.77,-6.84 3.43,-5.06 5.99,-10.51 8.65,-15.45 1.64,-6.31 4.5,-10.41 5.28,-17.91l1.71 -9.94 -0.16 -17.38c0,-18.95 -12.62,-48.31 -18.95,-62.22 -7.61,-16.71 -19.87,-36.4 -30.06,-50.37 -4.13,-5.15 -7.99,-11.14 -11.95,-16.04 -4.48,-5.54 -8.05,-10.05 -12.63,-15.48l-26.58 -28.95 -0.78 -0.79 -34.14 -29.66c-6.11,-4.67 -11.75,-9.18 -18.34,-13.88 -6.51,-4.64 -2.73,-4.31 -20.41,3.8 -4.21,1.93 -22.32,10.48 -26.39,10.51 -1.44,1.36 -0.35,0.68 -2.75,1.78 -0.36,0.16 -2.03,0.71 -2.48,0.86 -1.91,0.65 -3.42,1.24 -5.63,1.64 -5,1.94 -21.16,7.67 -25.57,7.31 -0.93,0.75 0.32,0.08 -1.71,1.07 -3.24,1.58 -23.85,5.5 -27.17,6.07 -10.33,1.79 -19.96,3.11 -30.24,4.44 -8.33,1.08 -55.66,3.74 -65.69,0.64l-1.23 -0.63c-8.98,2.03 -39.04,-5.72 -47.91,-7.31 -2.9,-0.48 -5.23,-1.09 -7.93,-1.85 -0.81,-0.23 -2.56,-0.64 -3.22,-0.9 -4.18,-1.65 -1.15,0.03 -2.69,-1.68 -3.4,0.19 -21.65,-5.71 -23.42,-7.16 -2.72,-0.71 -3.87,-1.11 -6.74,-2.19 -3.02,-1.13 -3.72,-0.74 -5.44,-3.07 -3.87,0.15 -9.84,-3.49 -13.75,-5.11 -3,-1.24 -10.75,-4.63 -12.44,-5.86 -3.96,-0.87 -9.17,-4.06 -12.98,-6.06 -5.91,-3.09 -5.75,-0.75 -10.94,3.15l-21.31 16.82z"/>
  <path class="fil0" d="M264.72 92.56l-23.09 35.51c-1.34,4.08 -4.35,9.3 -5.97,13.17 -1.83,4.38 -3.59,8.72 -5.09,13.11 -0.88,3.17 -2.48,9.19 -3.84,11.76 -4.06,19.47 -7.46,34.1 -7.22,56.13 0.11,10.14 0.86,19.76 2.3,29.44 0.68,4.59 1.56,9.21 2.44,13.31 0.91,4.25 2.83,8.8 2.6,12.94 2.2,1.91 3.32,7.46 4.83,11.91 1.48,4.35 3.38,8.1 4.57,12.69 1.18,1.25 5.33,10.27 6.21,12.21 2.11,2.46 3.86,6.75 5.73,9.93 1.98,3.37 3.83,6.36 5.71,9.23 3.82,5.82 10.81,13.24 13.13,18.3 1.88,0.31 1.31,0.61 3.04,2.69l9.12 9.96c1.73,1.73 12.33,10.21 12.65,12.16 3.65,1.67 6.36,4.32 9.69,6.88 2.59,2 5.71,4.33 8.73,6.17 6.79,4.14 12.04,7.37 19.45,11.4 17.71,7.45 18.76,9.91 40.91,15.97 40.19,11 85.47,8.58 124.36,-6.17 4.8,-1.82 17.6,-7.98 20.6,-8.19 2.09,-2.92 6.39,-4.27 9.69,-6.19 3.13,-1.81 5.82,-3.57 9.12,-5.76 3.12,-2.08 6.01,-3.85 8.88,-6.05 3.25,-2.48 5.77,-4.91 9.33,-6.41l20.9 -20.47c2.12,-2.25 4.2,-5.27 6.38,-6.81l18.23 -26.48c1.81,-3.05 3.49,-6.91 5.52,-9.33 1.5,-4.54 3.92,-7.79 5.91,-12.34 1.83,-4.16 3.62,-8.63 5.15,-13.11l3.84 -10.93c7.03,-32.38 11.56,-52.15 6.4,-87.13 -0.66,-4.48 -1.48,-9.74 -2.4,-14.07 -0.8,-3.76 -2.83,-9.57 -2.61,-12.77 -0.8,-1.01 -0.23,-0.08 -1.07,-1.75 -0.11,-0.23 -0.44,-0.97 -0.54,-1.22l-2.79 -8.73c-1.36,-4.32 -3.01,-8.34 -4.84,-12.5 -1.54,-3.49 -4.21,-8.53 -5.4,-12.12 -2.39,-3.18 -4.97,-8.86 -7.21,-12.6 -2.46,-4.11 -5.43,-7.78 -7.42,-12.44 -1.34,-0.55 0.21,0.79 -1.67,-1.59l-11.67 -14.87c-4.68,-5.63 -9.96,-10.88 -14.98,-15.63 -26.09,-24.69 -64.22,-45.03 -101.02,-51.3 -4.51,-0.77 -24.44,-2.75 -26.28,-3.54l-23.98 0c-2.35,1.01 -19.88,2.38 -24.78,3.36 -7.93,1.59 -15.15,3.05 -22.04,5.32 -27.84,9.18 -50.11,20.54 -71.92,39.01 -8.11,6.88 -8.98,8.61 -14.5,13.63 -5.36,4.88 -8.49,9.46 -13.09,14.31z"/>
 </g>
</svg>
