<?xml version="1.0" encoding="UTF-8"?>
<!DOCTYPE svg PUBLIC "-//W3C//DTD SVG 1.1//EN" "http://www.w3.org/Graphics/SVG/1.1/DTD/svg11.dtd">
<!-- Creator: CorelDRAW 2020 (64-Bit) -->
<svg xmlns="http://www.w3.org/2000/svg" xml:space="preserve" width="7.4666mm" height="7.4666mm" version="1.1" style="shape-rendering:geometricPrecision; text-rendering:geometricPrecision; image-rendering:optimizeQuality; fill-rule:evenodd; clip-rule:evenodd"
viewBox="0 0 846.66 846.66"
 xmlns:xlink="http://www.w3.org/1999/xlink"
 xmlns:xodm="http://www.corel.com/coreldraw/odm/2003">
 <defs>
  <style type="text/css">
   <![CDATA[
    .fil0 {fill:white}
   ]]>
  </style>
 </defs>
 <g id="Capa_x0020_1">
  <metadata id="CorelCorpID_0Corel-Layer"/>
  <g id="Ingresar">
   <path class="fil0" d="M166.09 125.39l0 147.24 62.36 0 0 -152.44c0,-16.08 13.47,-27.72 29.44,-27.72l420.94 0c16.43,0 29.45,13.02 29.45,29.45l0 602.82c0,16.43 -13.02,29.45 -29.45,29.45l-420.94 0c-15.97,0 -29.44,-11.64 -29.44,-27.71l0 -152.44 -62.36 0 0 147.24c0,38.68 19.99,68.92 50.76,84.35 9.96,4.98 21.63,9.19 35.85,9.19l433.06 0c12.39,0 29.13,-6.06 37.41,-11.09 36.05,-21.93 47.47,-50.92 47.47,-98.04l0 -568.18c0,-36.26 -7.51,-59.88 -27.89,-79.51l-20.66 -15.71c-9.26,-5.42 -23.42,-10.45 -38.06,-10.45l-431.33 0c-14.22,0 -25.89,4.21 -35.85,9.2 -30.83,15.45 -50.76,45.53 -50.76,84.35z"/>
   <path class="fil0" d="M287.34 253.57l0 79.68 -185.35 0c-13.27,0 -25.98,15.48 -25.98,29.45l0 121.26c0,13.98 12.71,29.45 25.98,29.45l185.35 0 0 81.42c0,11.7 13.62,41.11 40.29,16.03l86.58 -74.51c2.85,-2.54 4.04,-4.33 7.03,-6.84l122.47 -106.18c-1.27,-1.74 -11.18,-10.44 -13.6,-12.38 -5.59,-4.5 -8.75,-8.04 -13.85,-12.13l-35.34 -30.48c-3.57,-3.32 -4.21,-3.2 -7.71,-6.15l-21.05 -18.8c-3.45,-2.77 -4.07,-2.74 -7.64,-6.22 -5.54,-5.39 -9.26,-7.83 -14.7,-13.01l-78.82 -68.42c-5.42,-5.04 -33.72,-29.89 -37.67,-29.89 -15.07,0 -25.99,3.87 -25.99,27.72z"/>
  </g>
 </g>
</svg>
