<?xml version="1.0" encoding="UTF-8"?>
<!DOCTYPE svg PUBLIC "-//W3C//DTD SVG 1.1//EN" "http://www.w3.org/Graphics/SVG/1.1/DTD/svg11.dtd">
<!-- Creator: CorelDRAW 2020 (64-Bit) -->
<svg xmlns="http://www.w3.org/2000/svg" xml:space="preserve" width="7.4666mm" height="7.4666mm" version="1.1" style="shape-rendering:geometricPrecision; text-rendering:geometricPrecision; image-rendering:optimizeQuality; fill-rule:evenodd; clip-rule:evenodd"
viewBox="0 0 846.66 846.66"
 xmlns:xlink="http://www.w3.org/1999/xlink"
 xmlns:xodm="http://www.corel.com/coreldraw/odm/2003">
 <defs>
  <style type="text/css">
   <![CDATA[
    .fil0 {fill:white}
   ]]>
  </style>
 </defs>
 <g id="Capa_x0020_1">
  <metadata id="CorelCorpID_0Corel-Layer"/>
  <path id="Carrito" class="fil0" d="M589.42 709.69c0,-16.59 10.43,-27.89 26.36,-28.28 36,-0.89 37.75,54.43 -0.22,54.43 -13.64,0 -26.14,-12.16 -26.14,-26.15zm-230.68 26.15c-17.67,0 -27.68,-11.29 -27.68,-29.22 0,-32.46 53.82,-35.62 53.82,3.07 0,13.99 -12.5,26.15 -26.14,26.15zm218.38 -229.15l-44.6 0 0 -55.36 55.36 0 -5.5 26.79c-1.86,9.4 -5.26,19.04 -5.26,28.57zm-153.79 -55.36l50.75 0 0 55.36c-43.31,0 -38.87,3.22 -41.45,-10.84l-9.3 -44.52zm247.6 56.9l-35.37 0c0.29,-13.09 10.76,-43.61 10.76,-56.9l58.44 0c-9.7,41.64 -8.78,56.9 -33.83,56.9zm-366.02 -56.9l59.98 0c0,8.2 3.37,19.01 5.21,27.08 1.85,8.11 5.38,20.53 5.55,28.28 -56.91,0 -53.17,5.26 -61.18,-23.4 -2.51,-8.99 -6.17,-24.89 -9.56,-31.96zm295.27 -58.44l-67.66 0 0 -59.98 79.97 0c-0.19,8.35 -4.24,21.9 -5.77,29.6 -2.17,10.92 -4.16,20.2 -6.54,30.38zm-203 -59.98l76.9 0 0 59.98 -64.59 0c0,-8.74 -4.17,-22.12 -5.77,-29.61 -2.17,-10.16 -5.29,-20.69 -6.54,-30.37zm-124.56 0l66.12 0c0.27,12.01 11.14,45.9 12.31,59.98l-63.05 0c-0.16,-7 -5.6,-23.31 -7.36,-29.55 -2.74,-9.73 -6.75,-20.53 -8.02,-30.43zm442.91 59.98l-55.37 0c0,-6.89 10.28,-55.77 12.31,-59.98l61.51 0 -11.68 46.76c-1.41,5.92 -1.18,13.22 -6.77,13.22zm-472.13 -164.55c0,-9.41 4,-16.92 13.84,-16.92 63.3,0 53.28,-4.1 57.21,13.53 2.28,10.22 10.45,43.08 10.45,51.06l-69.2 0c-0.85,-10.23 -12.3,-38.06 -12.3,-47.67zm504.42 47.67l-63.05 0c0,-8.43 4.12,-25.3 5.84,-32.6 1.97,-8.34 6.28,-25.29 6.46,-33.53 34.95,0 69.52,-6.67 60.94,25.53 -3.72,13.95 -7.04,27.09 -10.19,40.6zm-376.78 -64.59l103.04 0 0 64.59 -89.2 0c-2.42,-10.39 -4.53,-20.17 -7.09,-31.36 -2.13,-9.34 -6.5,-24.2 -6.75,-33.23zm253.75 64.59l-92.27 0 0 -64.59 106.11 0c-4.96,21.3 -8.89,43.35 -13.84,64.59zm-595.16 -199.93c0,33.58 18.81,30.76 46.14,30.76 24.09,0 48.18,0 72.28,0l28.68 100.5c9.96,34.26 18.5,66.85 28.4,100.78 1.83,6.26 55.98,194.31 56.72,203.19 -29.57,2.46 -64.59,42.18 -64.59,76.89 0,36.04 9.83,55.34 34.99,75.74 11.18,9.07 28.67,16.53 44.98,16.53 -0.46,5.53 -1.9,7.32 -2.91,12.48 -10.6,54.44 35.28,107.39 96.49,99.56 48.01,-6.14 79.64,-55.01 70.09,-100.38 -0.97,-4.6 -1.81,-5.53 -2.19,-10.12l96.88 0c-5.68,24.39 -6.92,36.63 2.81,60.24 4.33,10.5 10.07,18.01 17.56,25.5 33.49,33.48 85.48,35.26 119.97,0.77 49.38,-49.38 21.55,-123.46 -34.01,-140.55 -23.77,-7.32 -104.84,-4.4 -135.55,-4.4l-210.69 0c-14.02,0.04 -21.13,0.4 -29.51,-5.86 -21.96,-16.39 -11.56,-50.48 15.69,-52.56 21.48,-1.65 145.78,-0.02 173.76,-0.02 17.96,0 219.76,1.34 231.64,-0.58 33.33,-5.4 51.89,-24.09 61.54,-53.8 9.08,-27.91 38.45,-154.09 46.39,-185.84 4.03,-16.15 7.6,-30.39 11.69,-46.75 5.39,-21.58 10.15,-31.48 10.15,-54.44 0,-39 -34.74,-70.74 -73.82,-70.74l-484.44 0c-15.83,0 -28.04,5.26 -38.44,10.76 -3.67,-15.75 -22.99,-89.38 -31.08,-98.1 -7.7,-8.29 -16.49,-12.62 -31.98,-12.62l-95.34 0c-8.97,0 -16.75,1.32 -22.27,5.41 -4.22,3.13 -10.03,11.21 -10.03,17.65z"/>
 </g>
</svg>
