<?xml version="1.0" encoding="UTF-8"?>
<!DOCTYPE svg PUBLIC "-//W3C//DTD SVG 1.1//EN" "http://www.w3.org/Graphics/SVG/1.1/DTD/svg11.dtd">
<!-- Creator: CorelDRAW 2020 (64-Bit) -->
<svg xmlns="http://www.w3.org/2000/svg" xml:space="preserve" width="9.4666mm" height="9.4666mm" version="1.1" style="shape-rendering:geometricPrecision; text-rendering:geometricPrecision; image-rendering:optimizeQuality; fill-rule:evenodd; clip-rule:evenodd"
viewBox="0 0 846.66 846.66"
 xmlns:xlink="http://www.w3.org/1999/xlink"
 xmlns:xodm="http://www.corel.com/coreldraw/odm/2003">
 <defs>
  <style type="text/css">
   <![CDATA[
    .fil0 {fill:red}
   ]]>
  </style>
 </defs>
 <g id="Capa_x0020_1">
  <metadata id="CorelCorpID_0Corel-Layer"/>
  <g id="menu">
   <path class="fil0" d="M33.86 419.86l0 6.95c0,26.26 25.91,52.17 52.16,52.17l674.62 0c26.26,0 52.16,-25.91 52.16,-52.17l0 -6.95c0,-26.25 -25.9,-52.16 -52.16,-52.16l-674.62 0c-26.25,0 -52.16,25.91 -52.16,52.16z"/>
   <path class="fil0" d="M33.86 642.42l0 6.95c0,26.25 25.91,52.16 52.16,52.16l674.62 0c26.26,0 52.16,-25.91 52.16,-52.16l0 -6.95c0,-26.26 -25.9,-52.17 -52.16,-52.17l-674.62 0c-26.25,0 -52.16,25.91 -52.16,52.17z"/>
   <path class="fil0" d="M33.86 197.3l0 6.96c0,26.25 25.91,52.16 52.16,52.16l674.62 0c26.26,0 52.16,-25.91 52.16,-52.16l0 -6.96c0,-26.25 -25.9,-52.16 -52.16,-52.16l-674.62 0c-26.25,0 -52.16,25.91 -52.16,52.16z"/>
  </g>
 </g>
</svg>
