<?xml version="1.0" encoding="UTF-8"?>
<!DOCTYPE svg PUBLIC "-//W3C//DTD SVG 1.1//EN" "http://www.w3.org/Graphics/SVG/1.1/DTD/svg11.dtd">
<!-- Creator: CorelDRAW 2020 (64-Bit) -->
<svg xmlns="http://www.w3.org/2000/svg" xml:space="preserve" width="7.4666mm" height="7.4666mm" version="1.1" style="shape-rendering:geometricPrecision; text-rendering:geometricPrecision; image-rendering:optimizeQuality; fill-rule:evenodd; clip-rule:evenodd"
viewBox="0 0 846.66 846.66"
 xmlns:xlink="http://www.w3.org/1999/xlink"
 xmlns:xodm="http://www.corel.com/coreldraw/odm/2003">
 <defs>
  <style type="text/css">
   <![CDATA[
    .fil0 {fill:white;fill-rule:nonzero}
   ]]>
  </style>
 </defs>
 <g id="Capa_x0020_1">
  <metadata id="CorelCorpID_0Corel-Layer"/>
  <g id="buscar">
   <g>
    <path class="fil0" d="M343.35 51.1c-0.18,0.18 -4.55,0.61 -9.7,0.97 -63.96,4.55 -122.21,26.15 -171.91,63.59 -22.63,17.11 -45.63,40.29 -62.98,63.59 -34.77,46.73 -56.44,103.89 -61.17,161.41 -0.36,4.31 -0.97,11.17 -1.33,15.17 -1.1,11.05 -0.13,31.25 2.54,52.49 6.8,54.73 27.49,106.55 60.02,150.18 9.7,13.11 17.84,22.45 30.34,34.89 25.78,25.79 52.6,45.09 84.64,60.68 34.29,16.69 66.69,25.91 108.01,30.77 13.23,1.51 50.06,1.51 63.72,0 24.81,-2.8 45.26,-7.1 67.23,-14.14 29.97,-9.65 63.77,-26.82 87.98,-44.66 3.89,-2.86 4.19,-2.98 5.47,-2.13 0.72,0.49 22.51,20.57 48.42,44.54 101.64,94.05 123.9,114.63 126.94,116.87 4.25,3.28 12.98,7.4 18.93,9.04 4.01,1.09 6.49,1.34 14.26,1.34 10.86,0 15.66,-1.04 24.15,-5.1 6.43,-3.1 9.77,-5.34 14.93,-10.26 5.16,-4.97 8.74,-9.89 11.89,-16.5 4.01,-8.43 5.04,-13.35 5.1,-23.91 0.06,-10.8 -1.09,-16.14 -5.4,-24.88 -5.34,-10.86 7.04,1.04 -139.75,-134.64 -23.72,-21.97 -43.2,-40.29 -43.2,-40.66 0,-0.36 2.18,-4.37 4.91,-8.86 6.19,-10.37 16.33,-31.01 21.06,-42.78 23.12,-57.89 28.94,-120.87 16.75,-181.73 -17.6,-88.17 -70.39,-163.17 -147.82,-210.01 -10.8,-6.56 -33.67,-17.78 -45.99,-22.58 -36.53,-14.32 -73.97,-21.66 -115.9,-22.69 -6.49,-0.18 -11.95,-0.18 -12.14,0zm36.41 114.2c37.68,5.1 72.45,19.9 101.64,43.2 3.7,2.92 10.62,9.16 15.41,13.84 27.91,27.18 46.85,59.77 56.13,96.48 4.37,17.23 6.07,31.73 6.01,50.66 -0.06,29.92 -5.83,56.68 -18.02,83.56 -14.69,32.46 -39.2,62.14 -69.06,83.49 -25.73,18.39 -56.25,30.53 -89.68,35.75 -7.77,1.21 -11.11,1.33 -28.22,1.33 -17.11,0 -20.45,-0.12 -28.21,-1.33 -23.49,-3.71 -41.14,-9.17 -61.59,-19.24 -13.47,-6.61 -22.33,-12.01 -33.32,-20.27 -44.84,-33.8 -73.18,-82.4 -80.76,-138.41 -1.4,-10.01 -1.82,-30.76 -0.97,-41.32 6.73,-79.73 58.07,-147.81 132.95,-176.33 16.81,-6.38 34.89,-10.44 56.13,-12.56 6.25,-0.61 34.34,0.12 41.56,1.15l0 0z"/>
   </g>
  </g>
 </g>
</svg>
