<?xml version="1.0" encoding="UTF-8"?>
<!DOCTYPE svg PUBLIC "-//W3C//DTD SVG 1.1//EN" "http://www.w3.org/Graphics/SVG/1.1/DTD/svg11.dtd">
<!-- Creator: CorelDRAW 2020 (64-Bit) -->
<svg xmlns="http://www.w3.org/2000/svg" xml:space="preserve" width="7.4666mm" height="7.4666mm" version="1.1" style="shape-rendering:geometricPrecision; text-rendering:geometricPrecision; image-rendering:optimizeQuality; fill-rule:evenodd; clip-rule:evenodd"
viewBox="0 0 846.66 846.66"
 xmlns:xlink="http://www.w3.org/1999/xlink"
 xmlns:xodm="http://www.corel.com/coreldraw/odm/2003">
 <defs>
  <style type="text/css">
   <![CDATA[
    .fil0 {fill:white}
   ]]>
  </style>
 </defs>
 <g id="Capa_x0020_1">
  <metadata id="CorelCorpID_0Corel-Layer"/>
  <g id="Tienda">
   <path class="fil0" d="M93.39 157.58c-0.46,1.91 -0.92,3.59 -1.6,5.45 -0.49,1.37 -0.42,1.27 -1.06,2.45 -0.64,1.2 -0.63,1.06 -1.19,1.76 0.06,2.53 -8.81,28.65 -9.95,30.34l-37.26 111.39 0 3.25c1.84,3.95 1.92,30.89 23.12,51.39 28.82,27.85 77.99,27.08 105.53,-0.89 22.75,-23.1 19.95,-42.81 23.47,-50.34 3.66,6 -0.1,18.07 15.06,40.35 25.4,37.34 82.7,42.07 114.5,10.31 21.03,-21 20.3,-44 23.11,-50.54 2.37,3.65 2.08,10.2 3.26,14.73 1.28,4.92 2.97,9.49 5.01,13.66 2.44,5 3.94,7.76 6.79,11.86 34.71,49.92 116.13,40.01 134.29,-24.21 1.34,-4.73 1.46,-10.37 3.2,-14.47 3.32,4.42 0.95,13.15 8.67,28.24 17.99,35.16 58.76,52.34 99.02,35.22 8.51,-3.61 20.62,-12.55 26.25,-19.56 1.26,-1.57 2.66,-3.53 4.01,-5.34 15.31,-20.46 10.99,-34.88 15.46,-38.42 0.3,0.49 2.93,14.64 3.7,17.07 12.05,38.16 50.16,60.75 88.89,51.37 34.93,-8.47 52.86,-34.01 58.34,-65.59 1.63,-9.39 -3.31,-19.51 -7.4,-31.44l-41.46 -123.06c-3.49,-10.62 -7.19,-20.42 -10.78,-30.83 -3.64,-10.51 -6.99,-20.74 -13.18,-27.54 -18.42,-20.26 -33.83,-22.47 -58.6,-23 -108.71,-2.35 -219.21,-0.93 -328.28,-0.73 -54.5,0.1 -109.45,-0.5 -163.71,1.01 -25.02,0.7 -42.15,-0.79 -62.06,20.11 -9.3,9.78 -9.8,13.47 -14.51,26.22 -3.37,9.13 -6.59,20.5 -10.64,29.78z"/>
   <path class="fil0" d="M710.76 409.58l-7.36 -1.34 -0.11 209.23c-0.85,24.47 0.63,49.34 -1.15,73.79 -0.35,4.79 -0.95,11.32 -3.13,15.4 -1.47,2.74 -6.86,6.45 -10.93,7.63 -5.81,1.68 -28.6,2.3 -35.44,2.02 -1.12,-7.4 -0.22,-21.87 -0.29,-30.13l-0.67 -201.94c-0.07,-9.08 -3.02,-6.41 -4.19,-11.71l-4.32 -3.8c-2.29,-1.95 -1.84,-0.5 -3.3,-3.56 -2.95,-0.29 -6.76,-1.67 -10.57,-1.94 -20.31,-1.45 -64.99,-0.83 -85.64,-0.78 -15.41,0.04 -33.18,-0.6 -48.19,0.88 -16.7,1.65 -19.57,15.59 -19.7,29.04 -0.08,2.43 -0.14,4.84 -0.21,7.26 -0.02,0.74 -0.07,2.63 -0.15,3.28l-0.74 2.54c1.97,7.77 -1.63,182.67 -0.28,210.85 -24.05,-1.3 -51.39,-0.14 -75.79,-0.14l-225.23 -0.86c-1.49,-0.08 -3.26,-0.08 -4.71,-0.23 -0.7,-0.07 -1.74,-0.2 -2.41,-0.36 -2.02,-0.49 -1.09,-0.22 -2.03,-0.74 -10.56,2.15 -19.99,-8.59 -19.94,-18.42l-0.04 -66.2c-0.26,-34.47 0.69,-70.12 -0.36,-104.35l-0.33 -116.49c-2.78,-0.51 -7.17,1.24 -10.7,1.65 -12.61,1.48 -28.44,0.38 -40.03,-2.21 0,85.79 -0.44,172.09 0.46,257.87 0.32,30.89 -0.44,50.06 15.97,70.51 11.27,14.05 29.3,28.81 56.05,29.58 28.3,0.8 57.26,0.89 85.7,0.85l344.4 0.05c27.97,0.01 56.98,0.11 84.84,-0.92 27.66,-1.03 46.04,-14.71 57.28,-29.19 16.31,-21 15.94,-37.39 16.13,-69.17l0.66 -216.32c0,-13.67 0.76,-29.73 -0.16,-43.11 -13.89,2.73 -28.68,3.81 -43.39,1.48z"/>
   <path class="fil0" d="M195.22 489.74c-0.04,13.4 -2.65,125.58 2.67,135.88 2.95,5.72 7.75,7.81 9.44,10.95 9.29,0.77 6.67,1.52 22.47,2.11 7.95,0.29 15.81,0.25 23.75,0.36 16.07,0.22 32.27,0.06 48.35,0.04 31.93,-0.02 64.87,0.78 96.68,-0.62 15.26,-0.67 23.1,-9.36 23.6,-24.37 1.04,-30.77 0.6,-65.59 0.59,-96.72 -0.01,-14.25 1.07,-31.15 -3.68,-43.94 -1.43,-1.18 -1.77,-1.68 -3.13,-3.1 -0.7,-0.74 -0.97,-0.99 -1.69,-1.79 -1.38,-1.55 -0.23,-0.13 -1.3,-1.58 -3.76,-0.92 -3.08,-3.03 -11.91,-3.67 -25.01,-1.81 -83.08,-1.07 -108.49,-1.03 -20.61,0.03 -41.72,-0.09 -62.08,0.37 -12.15,0.27 -18.34,-1.06 -26.18,5.51 -8.7,7.29 -8.04,14.44 -9.09,21.6z"/>
  </g>
 </g>
</svg>
