<?xml version="1.0" encoding="UTF-8"?>
<!DOCTYPE svg PUBLIC "-//W3C//DTD SVG 1.1//EN" "http://www.w3.org/Graphics/SVG/1.1/DTD/svg11.dtd">
<!-- Creator: CorelDRAW 2020 (64-Bit) -->
<svg xmlns="http://www.w3.org/2000/svg" xml:space="preserve" width="7.4666mm" height="7.4666mm" version="1.1" style="shape-rendering:geometricPrecision; text-rendering:geometricPrecision; image-rendering:optimizeQuality; fill-rule:evenodd; clip-rule:evenodd"
viewBox="0 0 846.66 846.66"
 xmlns:xlink="http://www.w3.org/1999/xlink"
 xmlns:xodm="http://www.corel.com/coreldraw/odm/2003">
 <defs>
  <style type="text/css">
   <![CDATA[
    .fil0 {fill:red}
    .fil1 {fill:white}
   ]]>
  </style>
 </defs>
 <g id="Capa_x0020_1">
  <metadata id="CorelCorpID_0Corel-Layer"/>
  <g id="Carrito_x0020_añadir">
   <path id="Carrito" class="fil0" d="M589.42 709.69c0,-16.59 10.43,-27.89 26.36,-28.28 36,-0.89 37.75,54.43 -0.22,54.43 -13.64,0 -26.14,-12.16 -26.14,-26.15zm-230.68 26.15c-17.67,0 -27.68,-11.29 -27.68,-29.22 0,-32.46 53.82,-35.62 53.82,3.07 0,13.99 -12.5,26.15 -26.14,26.15zm-329.11 -659.76c0,33.58 18.81,30.76 46.14,30.76 24.09,0 48.18,0 72.28,0l28.68 100.5c9.96,34.26 18.5,66.85 28.4,100.78 1.83,6.26 55.98,194.31 56.72,203.19 -29.57,2.46 -64.59,42.18 -64.59,76.89 0,36.04 9.83,55.34 34.99,75.74 11.18,9.07 28.67,16.53 44.98,16.53 -0.46,5.53 -1.9,7.32 -2.91,12.48 -10.6,54.44 35.28,107.39 96.49,99.56 48.01,-6.14 79.64,-55.01 70.09,-100.38 -0.97,-4.6 -1.81,-5.53 -2.19,-10.12l96.88 0c-5.68,24.39 -6.92,36.63 2.81,60.24 4.33,10.5 10.07,18.01 17.56,25.5 33.49,33.48 85.48,35.26 119.97,0.77 49.38,-49.38 21.55,-123.46 -34.01,-140.55 -23.77,-7.32 -104.84,-4.4 -135.55,-4.4l-210.69 0c-14.02,0.04 -21.13,0.4 -29.51,-5.86 -21.96,-16.39 -11.56,-50.48 15.69,-52.56 21.48,-1.65 145.78,-0.02 173.76,-0.02 17.96,0 219.76,1.34 231.64,-0.58 33.33,-5.4 51.89,-24.09 61.54,-53.8 9.08,-27.91 38.45,-154.09 46.39,-185.84 4.03,-16.15 7.6,-30.39 11.69,-46.75 5.39,-21.58 10.15,-31.48 10.15,-54.44 0,-39 -34.74,-70.74 -73.82,-70.74l-484.44 0c-15.83,0 -28.04,5.26 -38.44,10.76 -3.67,-15.75 -22.99,-89.38 -31.08,-98.1 -7.7,-8.29 -16.49,-12.62 -31.98,-12.62l-95.34 0c-8.97,0 -16.75,1.32 -22.27,5.41 -4.22,3.13 -10.03,11.21 -10.03,17.65z"/>
   <polygon class="fil1" points="637.86,317.98 637.86,384.12 532.43,384.12 532.43,489.54 466.29,489.54 466.29,384.12 360.87,384.12 360.87,317.98 466.29,317.98 466.29,212.55 532.43,212.55 532.43,317.98 "/>
  </g>
 </g>
</svg>
