<?xml version="1.0" encoding="UTF-8"?>
<!DOCTYPE svg PUBLIC "-//W3C//DTD SVG 1.1//EN" "http://www.w3.org/Graphics/SVG/1.1/DTD/svg11.dtd">
<!-- Creator: CorelDRAW 2020 (64-Bit) -->
<svg xmlns="http://www.w3.org/2000/svg" xml:space="preserve" width="7.4666mm" height="7.4666mm" version="1.1" style="shape-rendering:geometricPrecision; text-rendering:geometricPrecision; image-rendering:optimizeQuality; fill-rule:evenodd; clip-rule:evenodd"
viewBox="0 0 846.66 846.66"
 xmlns:xlink="http://www.w3.org/1999/xlink"
 xmlns:xodm="http://www.corel.com/coreldraw/odm/2003">
 <defs>
  <style type="text/css">
   <![CDATA[
    .fil0 {fill:#00E676;fill-rule:nonzero}
    .fil1 {fill:white;fill-rule:nonzero}
   ]]>
  </style>
 </defs>
 <g id="Capa_x0020_1">
  <metadata id="CorelCorpID_0Corel-Layer"/>
  <g id="_1439268521856">
   <path class="fil0" d="M240.7 709.26l12.57 6.29c50.69,30.1 108.65,46.07 167.61,46.07 0.6,0 1.2,0 1.8,0 183.52,-0.41 334.31,-151.56 334.31,-335.08 0,-88.7 -35.23,-173.87 -97.87,-236.66 -62.55,-63.43 -148.02,-99.18 -237.09,-99.18 -182.69,0 -332.99,150.33 -332.99,332.99 0,1.44 0,2.87 0.02,4.31 0.55,62.11 17.96,122.95 50.27,175.94l8.37 12.56 -33.51 123.57 126.5 -30.79 0.01 -0.02z"/>
   <g>
    <path class="fil1" d="M696.42 152.18c-71.31,-72.76 -169.14,-113.57 -271,-113.09l-0.65 0c-209.78,0 -382.42,172.63 -382.42,382.42 0,0.98 0.02,1.94 0.02,2.93 0.77,66.64 18.11,132.19 50.27,190.59l-54.46 198.95 202.94 -52.36c55.03,30.22 116.9,46.09 179.72,46.09 1.1,0 2.24,0 3.33,0 210.56,-1.15 383.17,-174.77 383.05,-385.35 0.5,-101.18 -39.4,-198.48 -110.79,-270.16l-0.01 -0.02zm-271 590.59c-0.52,0.01 -1.09,0.01 -1.62,0.01 -56.11,0 -111.3,-15.27 -159.44,-44l-12.56 -6.28 -120.84 31.41 31.41 -119.37 -8.38 -12.57c-31.07,-50.17 -47.59,-108.19 -47.59,-167.26 0,-174.29 143.41,-317.71 317.7,-317.71 174.29,0 317.7,143.42 317.7,317.71 0,109.74 -56.86,211.98 -150.09,269.89 -49.08,31.42 -106.2,48.17 -164.5,48.17 -0.23,0 -0.53,0 -0.75,0l-1.04 0zm185.13 -232.47l-23.03 -10.47c0,0 -33.51,-14.66 -54.45,-25.13 -2.1,0 -4.19,-2.09 -6.29,-2.09 -5.16,0.12 -10.21,1.57 -14.66,4.19 -4.46,2.61 -2.09,2.09 -31.41,35.6 -1.99,3.92 -6.07,6.37 -10.47,6.28l-2.1 0c-3.14,-0.52 -6.06,-1.99 -8.37,-4.19l-10.48 -4.19c-22.43,-9.48 -43.06,-23 -60.73,-39.78 -4.19,-4.19 -10.47,-8.38 -14.66,-12.57 -15.47,-14.82 -28.91,-31.78 -39.78,-50.26l-2.1 -4.19c-1.82,-2.56 -3.24,-5.4 -4.19,-8.38 -0.12,-0.77 -0.18,-1.56 -0.18,-2.34 0,-2.87 0.78,-5.68 2.27,-8.13 1.91,-3.15 8.38,-10.48 14.66,-16.76 6.28,-6.28 6.28,-10.47 10.47,-14.66 3.16,-4.39 4.86,-9.67 4.86,-15.08 0,-1.97 -0.22,-3.94 -0.67,-5.86 -9.73,-27 -21.01,-53.76 -33.49,-79.61 -3.38,-5.21 -8.64,-8.96 -14.68,-10.45l-23.04 0.01c-4.19,0 -8.37,2.09 -12.56,2.09l-2.1 2.09c-4.19,2.1 -8.37,6.29 -12.56,8.38 -4.19,2.09 -6.29,8.38 -10.47,12.57 -14.63,18.48 -22.75,41.35 -23.04,64.91 0.23,16.58 3.79,32.99 10.46,48.18l2.1 6.28c18.78,40.18 45.16,76.49 77.51,106.8l8.38 8.37c6.06,5.05 11.71,10.69 16.73,16.77 43.39,37.76 94.93,64.98 150.58,79.58 6.28,2.09 14.66,2.09 20.94,4.19l20.95 0c10.94,-0.54 21.66,-3.39 31.42,-8.37 5.13,-2.33 10.03,-5.13 14.66,-8.38l4.19 -4.19c4.18,-4.18 8.37,-6.28 12.56,-10.47 4.09,-3.64 7.62,-7.89 10.47,-12.57 4.02,-9.38 6.85,-19.22 8.38,-29.32l0 -14.66c-1.88,-1.69 -4,-3.1 -6.28,-4.19l0.2 0zm0 0l0 0 0 0z"/>
   </g>
  </g>
 </g>
</svg>
