<?xml version="1.0" encoding="UTF-8"?>
<!DOCTYPE svg PUBLIC "-//W3C//DTD SVG 1.1//EN" "http://www.w3.org/Graphics/SVG/1.1/DTD/svg11.dtd">
<!-- Creator: CorelDRAW 2020 (64-Bit) -->
<svg xmlns="http://www.w3.org/2000/svg" xml:space="preserve" width="7.4666mm" height="7.4666mm" version="1.1" style="shape-rendering:geometricPrecision; text-rendering:geometricPrecision; image-rendering:optimizeQuality; fill-rule:evenodd; clip-rule:evenodd"
viewBox="0 0 846.66 846.66"
 xmlns:xlink="http://www.w3.org/1999/xlink"
 xmlns:xodm="http://www.corel.com/coreldraw/odm/2003">
 <defs>
  <style type="text/css">
   <![CDATA[
    .str0 {stroke:black;stroke-width:20;stroke-miterlimit:22.9256}
    .fil0 {fill:white}
    .fil1 {fill:white}
   ]]>
  </style>
 </defs>
 <g id="Capa_x0020_1">
  <metadata id="CorelCorpID_0Corel-Layer"/>
  <g id="Administrador">
   <path class="fil0" d="M546.38 475.89c-9.48,0 -16.44,-5.62 -23.29,-10.78 -2.4,-1.81 -4.29,-2.99 -6.61,-4.75l-25.27 -18.55c-9.46,14.13 -55.54,74.89 -58.42,80.33 1.92,2.88 5.44,6.3 7.87,9.17l16.13 19.57c19.02,24.12 -9.09,25.76 -30.66,31.15 -3.84,0.95 -10.95,3.33 -14.44,3.4l0 80.33c5.5,0.13 38.39,10.08 45.12,14.12 20.5,12.31 1.51,26.19 -10.42,36.81 -2,1.78 -2.69,2.44 -4.79,4.14 -3.08,2.48 -7.54,5.92 -9.63,9.03 5.88,8.78 23.07,29.91 30.26,39.53 2.58,3.47 4.7,6.16 7.41,9.63l23.19 30.36c12.69,-6.71 28.95,-17.72 42.75,-25.4 18.52,-10.31 27.92,-9.32 34.34,14.85 1.32,4.95 6.39,27.33 6.48,31.65l79.52 0 4.64 -31.88c3.45,-18.24 15.36,-25.72 30.39,-15.32 1.58,1.1 3.06,2.28 4.52,3.59l22.93 20.08c4.04,-2.71 10.42,-10.36 14.8,-14.41l19.88 -19.07c2.26,-2.28 3.5,-2.82 5.7,-4.85 7.06,-6.53 12.42,-13.67 20.13,-19.62 3.21,-2.48 17.93,-17.11 19.82,-19.95 -1.47,-0.98 -3.4,-2.65 -4.98,-3.94 -10.84,-8.82 -32.34,-23.9 -26.71,-36.64 5.09,-11.54 32.78,-17.48 45.81,-20.76 3.13,-0.78 4.9,-1.71 7.79,-1.95l0 -80.33c-4.65,-0.1 -39.71,-9.33 -45.46,-12.15 -18.76,-9.16 -6.68,-19.55 5.9,-32.28 3.13,-3.17 6.66,-5.76 10.23,-8.42 3.09,-2.31 8.76,-5.97 10.67,-8.81 -1.87,-3.53 -4.57,-6.63 -7.08,-9.97 -2.72,-3.63 -4.98,-6.65 -7.65,-10.2 -9.76,-13 -37.05,-48.63 -45.32,-60.97 -3.88,1.03 -21.09,14.59 -26.19,18.43 -34.53,25.91 -35.53,22.05 -51.47,-18.67 -7.93,-20.28 -11.01,-20.01 -22.9,-20.91 -18.71,-1.41 -42.32,-0.76 -61.72,-0.76 -3.21,0 -5.27,11.01 -6.49,15.42 -1.47,5.32 -3.4,11.25 -5.44,16.47 -3.47,8.89 -9.92,23.28 -21.34,23.28z"/>
   <path class="fil0" d="M174.76 228.41c0,29.38 6.63,56.4 16.51,76.81l7.57 15.14c2.78,5 6.07,9.94 9.19,14.35 6.35,8.97 13.5,17.13 21.3,24.95 31.26,31.37 83.71,56.19 128.81,56.19 28.11,0 53.68,-9 72.22,-18.65 29.99,-15.61 58.6,-42.31 78.23,-69.45 18.47,-25.53 32.92,-61.47 32.92,-92.84 0,-21.57 0.18,-35.59 -6.58,-56.71 -3.66,-11.41 -7.56,-22.28 -12.61,-32.83 -6.66,-13.93 -17.16,-29.55 -26.6,-41.56l-10.81 -12.72c-6.21,-7.05 -16.32,-15.59 -23.83,-21.61 -9.96,-7.98 -16.73,-11.69 -27.33,-18.11 -49.54,-30.01 -106.02,-22.87 -154.58,3.96l-22.01 14.5c-45.86,34.8 -82.4,89.83 -82.4,158.58z"/>
   <path class="fil0" d="M378.76 744.81c7.38,-9.03 0.42,-30.81 -2.12,-41.56 -11.86,-50.07 -5.25,-110.14 15.3,-156.23 6.57,-14.75 10.52,-23.11 18.89,-37.09 7.27,-12.15 29.6,-43.9 7.8,-50.71 -3.6,-1.12 -13.8,-2.03 -18.28,-2.01 -13.26,0.06 -26.52,0.02 -39.78,0.02 -13.61,0 -24.92,-0.81 -38.95,-0.81l-111.97 1.63c-13.68,0.74 -18.01,-0.37 -35.36,2.77 -24.8,4.49 -42.58,12.82 -61.21,27.24 -21.34,16.51 -36.13,43.87 -44.52,69.07 -4.19,12.59 -8.46,24.6 -12.77,37.54 -2.2,6.59 -3.9,12.56 -6.09,19.06 -2.11,6.28 -4.15,13.33 -6.28,19.69 -4.27,12.71 -8.25,25.42 -12.18,38.12 -3.19,10.31 -9.67,30.11 -3.65,40.77 16.7,29.56 332.24,55.64 351.17,32.5z"/>
   <circle class="fil1 str0" cx="621.03" cy="623.57" r="87.63"/>
  </g>
 </g>
</svg>
