<?xml version="1.0" encoding="UTF-8"?>
<!DOCTYPE svg PUBLIC "-//W3C//DTD SVG 1.1//EN" "http://www.w3.org/Graphics/SVG/1.1/DTD/svg11.dtd">
<!-- Creator: CorelDRAW 2020 (64-Bit) -->
<svg xmlns="http://www.w3.org/2000/svg" xml:space="preserve" width="8.4666mm" height="8.4666mm" version="1.1" style="shape-rendering:geometricPrecision; text-rendering:geometricPrecision; image-rendering:optimizeQuality; fill-rule:evenodd; clip-rule:evenodd"
viewBox="0 0 846.66 846.66"
 xmlns:xlink="http://www.w3.org/1999/xlink"
 xmlns:xodm="http://www.corel.com/coreldraw/odm/2003">
 <defs>
  <style type="text/css">
   <![CDATA[
    .fil0 {fill:#1A5B9C}
   ]]>
  </style>
 </defs>
 <g id="Capa_x0020_1">
  <metadata id="CorelCorpID_0Corel-Layer"/>
  <path class="fil0" d="M169.29 790.28c0,4.42 7.5,13.37 16.34,13.37l475.4 0c6.02,0 11.52,-3.93 14.11,-8.16 3.02,-4.96 3.71,-11.33 3.71,-18.58l0 -482.82 -509.56 0 0 496.19zm139.65 -692.3l0 29.72 37.14 0c0,-29.45 -5.16,-49.04 22.28,-49.04l109.94 0c27.44,0 22.28,19.59 22.28,49.04l37.14 0c0,-24.41 2.89,-50.22 -9.91,-67.36 -5.9,-7.9 -18.69,-17.33 -31.68,-17.33l-145.6 0c-26.04,0 -41.59,24.53 -41.59,54.97zm-161.93 80.23l0 63.88c0,3.95 2.21,8.41 4.16,10.7 1.47,1.74 6.6,5.64 9.21,5.64l525.9 0c4.43,0 13.37,-7.5 13.37,-16.34l0 -63.88c0,-11.31 -11.97,-16.35 -23.76,-16.35l-505.12 0c-11.79,0 -23.76,5.04 -23.76,16.35zm132.28 169.4l0 0c14.56,0 26.46,11.9 26.46,26.46l0 343.96c0,14.56 -11.9,26.46 -26.46,26.46l0 0c-14.56,0 -26.46,-11.9 -26.46,-26.46l0 -343.96c0,-14.56 11.9,-26.46 26.46,-26.46zm140.56 0l0 0c14.56,0 26.46,11.9 26.46,26.46l0 343.96c0,14.56 -11.9,26.46 -26.46,26.46l0 0c-14.56,0 -26.46,-11.9 -26.46,-26.46l0 -343.96c0,-14.56 11.9,-26.46 26.46,-26.46zm152.14 0l0 0c14.56,0 26.46,11.9 26.46,26.46l0 343.96c0,14.56 -11.9,26.46 -26.46,26.46l0 0c-14.56,0 -26.46,-11.9 -26.46,-26.46l0 -343.96c0,-14.56 11.9,-26.46 26.46,-26.46z"/>
 </g>
</svg>
