<?xml version="1.0" encoding="UTF-8"?>
<!DOCTYPE svg PUBLIC "-//W3C//DTD SVG 1.1//EN" "http://www.w3.org/Graphics/SVG/1.1/DTD/svg11.dtd">
<!-- Creator: CorelDRAW 2020 (64-Bit) -->
<svg xmlns="http://www.w3.org/2000/svg" xml:space="preserve" width="7.4666mm" height="7.4666mm" version="1.1" style="shape-rendering:geometricPrecision; text-rendering:geometricPrecision; image-rendering:optimizeQuality; fill-rule:evenodd; clip-rule:evenodd"
viewBox="0 0 846.66 846.66"
 xmlns:xlink="http://www.w3.org/1999/xlink"
 xmlns:xodm="http://www.corel.com/coreldraw/odm/2003">
 <defs>
  <style type="text/css">
   <![CDATA[
    .fil0 {fill:white;fill-rule:nonzero}
   ]]>
  </style>
 </defs>
 <g id="Capa_x0020_1">
  <metadata id="CorelCorpID_0Corel-Layer"/>
  <g id="Empresa">
   <g>
    <path class="fil0" d="M754.23 716.86l-15.6 0 0 -358.76 0 0c-19.14,0 -37.27,-6.26 -52.4,-16.84 -10.14,7.16 -21.84,12.47 -34.78,15.06 -5.96,1.18 -12,1.78 -17.94,1.78 -19.46,0 -37.57,-6.44 -52.66,-17.09 -12.59,8.86 -27.34,15.02 -43.79,16.68 -2.92,0.27 -5.79,0.41 -8.68,0.41 -19.54,0 -37.52,-6.32 -52.46,-16.78 -14.92,10.49 -33.01,16.78 -52.59,16.78 -19.58,0 -37.66,-6.28 -52.58,-16.78 -14.94,10.45 -32.91,16.78 -52.47,16.78 -2.88,0 -5.76,-0.15 -9.17,-0.46 -15.94,-1.6 -30.65,-7.57 -43.43,-16.56 -15.05,10.61 -33.11,17.02 -52.52,17.02 -5.91,0 -11.94,-0.59 -17.98,-1.79 -12.93,-2.58 -24.61,-7.89 -34.75,-15.03 -15.11,10.56 -33.23,16.82 -52.38,16.82l0.01 0 0 358.76 -15.6 0c-20.41,0 -36.96,16.6 -36.96,37.07 0,20.47 16.55,37.07 36.96,37.07l382.22 0 0 -74.14 0 -206.81c0,-20.75 16.76,-37.57 37.46,-37.57l131.38 -0.01c20.7,0 37.48,16.82 37.48,37.58l0 206.8 0 74.14 73.23 0.01c20.41,0 36.96,-16.6 36.96,-37.07 0,-20.47 -16.55,-37.07 -36.96,-37.07zm-344.76 -288.54l0 161.92c0,9.71 -7.86,17.58 -17.53,17.58l-195.86 0c-9.68,0 -17.53,-7.86 -17.53,-17.58l0 -20.41 181.38 -159.1 32.01 0c9.67,0 17.53,7.88 17.53,17.59zm-86.69 -17.59l-144.23 126.51 0 -37.91 101.06 -88.59 43.17 -0.01zm-144.23 17.59c0,-9.71 7.84,-17.59 17.53,-17.59l46.38 0 -63.91 56.01 0 -38.42z"/>
    <path class="fil0" d="M57.69 250.76c-8.29,27.89 7.51,57.25 35.33,65.59 5.01,1.49 10.08,2.22 15.07,2.22 22.62,0 43.51,-14.79 50.32,-37.65l2.75 -9.23c1.87,16.79 11.67,31.72 26.28,40.02 4.7,2.68 9.86,4.71 15.45,5.82 3.47,0.7 6.91,1.03 10.32,1.03 24.54,0 46.49,-17.36 51.48,-42.44l1.29 -6.47c1.27,17.89 11.62,33.54 26.75,42.06 6.11,3.45 12.89,5.84 20.31,6.58 1.77,0.19 3.52,0.27 5.27,0.27 26.68,0 49.54,-20.3 52.23,-47.49l0.38 -3.88c0.48,19.19 11.26,35.64 26.89,44.47 7.59,4.27 16.19,6.9 25.52,6.9 9.33,0 17.95,-2.64 25.53,-6.92 15.65,-8.83 26.42,-25.31 26.89,-44.52l0.38 3.94c2.71,27.19 25.55,47.49 52.25,47.49 1.73,0 3.49,-0.08 5.25,-0.27 7.42,-0.74 14.22,-3.12 20.3,-6.56 15.14,-8.51 25.48,-24.14 26.78,-42.03l1.26 6.43c4.98,25.09 26.94,42.44 51.48,42.44 3.41,0 6.87,-0.34 10.33,-1.03 5.59,-1.11 10.75,-3.14 15.44,-5.82 14.61,-8.3 24.41,-23.23 26.28,-40.02l2.74 9.23c6.82,22.87 27.72,37.65 50.34,37.65 4.98,0 10.05,-0.73 15.07,-2.22 27.82,-8.34 43.61,-37.7 35.32,-65.59l-45.01 -151.15c-7.77,-26.08 -31.68,-43.95 -58.81,-43.95l-523.63 0c-27.12,0 -51.03,17.87 -58.81,43.95l-45.02 151.15z"/>
    <path class="fil0" d="M522.56 621.72c-11.26,0 -20.38,9.15 -20.38,20.44 0,11.31 9.12,20.45 20.38,20.45 11.27,0 20.39,-9.14 20.39,-20.45 0,-11.28 -9.12,-20.44 -20.39,-20.44z"/>
   </g>
   <g>
   </g>
   <g>
   </g>
   <g>
   </g>
   <g>
   </g>
   <g>
   </g>
   <g>
   </g>
   <g>
   </g>
   <g>
   </g>
   <g>
   </g>
   <g>
   </g>
   <g>
   </g>
   <g>
   </g>
   <g>
   </g>
   <g>
   </g>
   <g>
   </g>
  </g>
 </g>
</svg>
