<?xml version="1.0" encoding="UTF-8"?>
<!DOCTYPE svg PUBLIC "-//W3C//DTD SVG 1.1//EN" "http://www.w3.org/Graphics/SVG/1.1/DTD/svg11.dtd">
<!-- Creator: CorelDRAW 2020 (64-Bit) -->
<svg xmlns="http://www.w3.org/2000/svg" xml:space="preserve" width="7.4666mm" height="7.4666mm" version="1.1" style="shape-rendering:geometricPrecision; text-rendering:geometricPrecision; image-rendering:optimizeQuality; fill-rule:evenodd; clip-rule:evenodd"
viewBox="0 0 846.66 846.66"
 xmlns:xlink="http://www.w3.org/1999/xlink"
 xmlns:xodm="http://www.corel.com/coreldraw/odm/2003">
 <defs>
  <style type="text/css">
   <![CDATA[
    .fil0 {fill:red}
   ]]>
  </style>
 </defs>
 <g id="Capa_x0020_1">
  <metadata id="CorelCorpID_0Corel-Layer"/>
  <g id="Cliente">
   <path class="fil0" d="M19.01 648.76c1.53,16.78 6.43,32.12 20.24,43.03 11.78,9.3 25.44,15.5 46.09,15.5l352.2 0c45.01,0 67.92,-28.37 67.92,-75.81 0,-59.49 -13.72,-105.49 -60.45,-140.13 -25.77,-19.11 -56.69,-28.86 -92.75,-28.86 -7.37,0 -76.84,41.27 -160.66,7.45 -3.1,-1.25 -17.66,-7.45 -19.39,-7.45 -39.69,0 -80.03,12.7 -106.24,39.06 -6.74,6.79 -11.59,11.08 -17.42,18.91 -15.86,21.29 -29.54,51.32 -29.54,81.01l0 47.29z"/>
   <path class="fil0" d="M120.09 272.96c0,45.43 9.65,76.78 41.46,108.59 49.31,49.31 122.73,55.02 180.29,16.82 33.08,-21.95 60.96,-66.15 60.96,-104.87l0 -22.12c0,-51.27 -38.11,-99.55 -83.73,-120.01 -48.03,-21.55 -109.52,-13.32 -145.65,18.57 -14.22,12.55 -11.57,8.06 -25.6,26.52 -15.16,19.95 -27.73,49.17 -27.73,76.5z"/>
   <path class="fil0" d="M494.4 481.44c1.3,4.85 12.72,17.05 17.39,23.68 5.65,8.04 9.91,16.74 14.74,26.32 21.95,43.55 16.83,84.38 16.83,134.79l225.85 0c29.5,0 58.44,-27.3 58.44,-56.86 0,-37.41 -7.83,-63.78 -29.09,-90.94 -12.44,-15.87 -8.19,-10.5 -21.8,-22.42 -19.9,-17.45 -46.36,-29.17 -76.89,-32.09 -21.24,-2.03 -17.23,-0.43 -35.59,4.19 -30.41,7.65 -53.98,6.78 -83.71,-1.77 -21.34,-6.14 -27.95,-4.33 -53.35,2.12 -16.3,4.14 -25.1,11.18 -32.82,12.98z"/>
   <path class="fil0" d="M503.88 299.81c0,21.18 3.32,35.81 10.83,52.35 2.77,6.11 6.56,12.47 10.31,18.12 11.02,16.61 29.16,32.76 47.27,41.17 43.62,20.25 95.48,14.57 131.82,-17.22 89.16,-78.03 28.05,-214.45 -75.46,-214.45 -71.87,0 -124.77,55.05 -124.77,120.03z"/>
  </g>
 </g>
</svg>
