<?xml version="1.0" encoding="UTF-8"?>
<!DOCTYPE svg PUBLIC "-//W3C//DTD SVG 1.1//EN" "http://www.w3.org/Graphics/SVG/1.1/DTD/svg11.dtd">
<!-- Creator: CorelDRAW 2020 (64-Bit) -->
<svg xmlns="http://www.w3.org/2000/svg" xml:space="preserve" width="7.4666mm" height="7.4666mm" version="1.1" style="shape-rendering:geometricPrecision; text-rendering:geometricPrecision; image-rendering:optimizeQuality; fill-rule:evenodd; clip-rule:evenodd"
viewBox="0 0 846.66 846.66"
 xmlns:xlink="http://www.w3.org/1999/xlink"
 xmlns:xodm="http://www.corel.com/coreldraw/odm/2003">
 <defs>
  <style type="text/css">
   <![CDATA[
    .fil0 {fill:red;fill-rule:nonzero}
   ]]>
  </style>
 </defs>
 <g id="Capa_x0020_1">
  <metadata id="CorelCorpID_0Corel-Layer"/>
  <g id="Productos">
   <g>
    <g>
     <path class="fil0" d="M754.85 393.56c-1.67,-1.2 -3.82,-1.51 -5.77,-0.85 0,0 -216.65,73.68 -222.57,75.72 -4.96,1.71 -8.17,-2.58 -8.17,-2.58l-68.17 -84.2c-1.7,-2.1 -4.53,-2.9 -7.08,-2 -2.54,0.9 -4.24,3.3 -4.24,6l0 305.64c0,2.13 1.06,4.12 2.83,5.3 1.06,0.71 2.3,1.07 3.54,1.07 0.82,0 1.65,-0.16 2.43,-0.48l305.92 -126.41c2.38,-0.99 3.94,-3.31 3.94,-5.89l0 -166.15c0,-2.04 -0.99,-3.97 -2.66,-5.17z"/>
     <path class="fil0" d="M826.37 325.26l-58.38 -78.02c-0.84,-1.12 -2.03,-1.94 -3.37,-2.32l-339.38 -95.82c-1.13,-0.32 -2.67,-0.23 -3.82,0.09l-339.38 95.82c-1.34,0.38 -2.53,1.19 -3.37,2.32l-58.38 78.02c-1.22,1.64 -1.59,3.76 -0.98,5.7 0.6,1.95 2.1,3.5 4.04,4.15l286.97 97.4c0.67,0.23 1.36,0.34 2.05,0.34 1.88,0 3.71,-0.84 4.95,-2.36l80.33 -99.02 23.82 6.56c1.1,0.3 2.27,0.3 3.38,0l0 -0.02c0.11,-0.02 0.23,-0.04 0.34,-0.07l23.82 -6.55 80.34 99.01c1.23,1.52 3.06,2.36 4.94,2.36 0.69,0 1.38,-0.11 2.05,-0.34l286.98 -97.4c1.93,-0.65 3.43,-2.2 4.04,-4.15 0.6,-1.95 0.23,-4.07 -0.99,-5.7zm-402.86 -14.27l-243.38 -66.5 243.38 -68.31 243.02 68.23 -243.02 66.58z"/>
     <path class="fil0" d="M403.57 379.74c-2.54,-0.9 -5.38,-0.11 -7.08,2l-68.17 84.2c0,0 -3.21,4.29 -8.17,2.59 -5.92,-2.04 -222.57,-75.73 -222.57,-75.73 -1.95,-0.66 -4.1,-0.34 -5.76,0.85 -1.68,1.2 -2.67,3.13 -2.67,5.18l0 166.15c0,2.58 1.56,4.9 3.94,5.89l305.92 126.4c0.78,0.33 1.61,0.49 2.43,0.49 1.25,0 2.48,-0.36 3.54,-1.08 1.77,-1.18 2.83,-3.17 2.83,-5.29l0 -305.65c0,-2.7 -1.7,-5.1 -4.24,-6z"/>
    </g>
   </g>
   <g>
   </g>
   <g>
   </g>
   <g>
   </g>
   <g>
   </g>
   <g>
   </g>
   <g>
   </g>
   <g>
   </g>
   <g>
   </g>
   <g>
   </g>
   <g>
   </g>
   <g>
   </g>
   <g>
   </g>
   <g>
   </g>
   <g>
   </g>
   <g>
   </g>
  </g>
 </g>
</svg>
