<?xml version="1.0" encoding="UTF-8"?>
<!DOCTYPE svg PUBLIC "-//W3C//DTD SVG 1.1//EN" "http://www.w3.org/Graphics/SVG/1.1/DTD/svg11.dtd">
<!-- Creator: CorelDRAW 2020 (64-Bit) -->
<svg xmlns="http://www.w3.org/2000/svg" xml:space="preserve" width="7.4666mm" height="7.4666mm" version="1.1" style="shape-rendering:geometricPrecision; text-rendering:geometricPrecision; image-rendering:optimizeQuality; fill-rule:evenodd; clip-rule:evenodd"
viewBox="0 0 846.66 846.66"
 xmlns:xlink="http://www.w3.org/1999/xlink"
 xmlns:xodm="http://www.corel.com/coreldraw/odm/2003">
 <defs>
  <style type="text/css">
   <![CDATA[
    .fil0 {fill:red;fill-rule:nonzero}
   ]]>
  </style>
 </defs>
 <g id="Capa_x0020_1">
  <metadata id="CorelCorpID_0Corel-Layer"/>
  <g id="Etiqueta">
   <g>
    <path class="fil0" d="M324.61 54.05c-5.43,1.09 -10.31,3.89 -13.93,7.87 -1.72,1.9 -7.6,11.4 -13.03,21.08 -5.43,9.68 -19.18,34.11 -30.67,54.29 -49.13,86.68 -55.1,97.44 -56.28,100.79 -1.08,2.89 -1.26,46.14 -1.26,267.72 0,247.9 0.09,264.55 1.53,269.17 1.99,6.33 8.15,13.3 14.3,16.1l4.52 2.17 193.17 0 193.17 0 4.7 -2.17c6.34,-2.98 11.4,-8.32 13.94,-14.66l2.17 -5.33 0.27 -261.93c0.09,-174.44 -0.09,-263.56 -0.73,-266.91 -0.63,-3.62 -3.52,-9.68 -10.31,-21.71 -17.55,-31.4 -53.2,-94.46 -66.14,-117.17 -7.06,-12.49 -14.84,-26.06 -17.19,-30.31 -5.43,-9.77 -10.31,-14.84 -16.74,-17.46l-4.97 -1.99 -96.36 -0.18c-53.02,0 -98.08,0.27 -100.16,0.63l0 0zm108.76 104.41c17.82,4.7 29.4,19.63 29.4,37.64 0,34.38 -41.08,51.57 -65.69,27.59 -8.68,-8.5 -13.11,-21.53 -11.31,-33.11 3.71,-22.71 26.15,-37.91 47.6,-32.12z"/>
   </g>
  </g>
 </g>
</svg>
