<?xml version="1.0" encoding="UTF-8"?>
<!DOCTYPE svg PUBLIC "-//W3C//DTD SVG 1.1//EN" "http://www.w3.org/Graphics/SVG/1.1/DTD/svg11.dtd">
<!-- Creator: CorelDRAW 2020 (64-Bit) -->
<svg xmlns="http://www.w3.org/2000/svg" xml:space="preserve" width="7.4666mm" height="7.4666mm" version="1.1" style="shape-rendering:geometricPrecision; text-rendering:geometricPrecision; image-rendering:optimizeQuality; fill-rule:evenodd; clip-rule:evenodd"
viewBox="0 0 846.66 846.66"
 xmlns:xlink="http://www.w3.org/1999/xlink"
 xmlns:xodm="http://www.corel.com/coreldraw/odm/2003">
 <defs>
  <style type="text/css">
   <![CDATA[
    .fil0 {fill:white;fill-rule:nonzero}
   ]]>
  </style>
 </defs>
 <g id="Capa_x0020_1">
  <metadata id="CorelCorpID_0Corel-Layer"/>
  <g id="_2896121499632">
   <g>
    <path class="fil0" d="M450.79 216.46c-0.92,-17.36 -18.65,-14.4 -35.96,-14.4 12.79,3.4 24.87,8.13 35.96,14.4z"/>
    <path class="fil0" d="M265.84 172.97c-67.17,0 -98.08,85.01 -44.38,127.77 18.3,-48.87 54.73,-83.97 102.5,-97.81 -13.06,-18.07 -34.18,-29.96 -58.12,-29.96z"/>
    <path class="fil0" d="M127.09 287.44c2.74,8.78 6.28,17.2 10.5,25.19l-22.07 22.08c-5.93,5.93 -5.93,15.54 0,21.48l38.89 38.9c2.83,2.84 6.71,4.43 10.75,4.43 4.01,0 7.85,-1.6 10.74,-4.43l22.04 -22.07c3.31,1.75 6.98,2.82 10.4,4.33 0,-0.25 -0.03,-0.52 -0.03,-0.77 0,-18.04 2.07,-35.06 5.77,-51.03 -26.62,-17.13 -44.36,-46.86 -44.36,-80.8 0,-53.01 43.12,-96.15 96.12,-96.15 35.89,0 66.88,19.98 83.42,49.17 17.67,-2.19 34.25,-2.19 54.22,1.58 -2.57,-7.77 -5.59,-15.37 -9.37,-22.5l22.06 -22.09c2.87,-2.84 4.47,-6.71 4.47,-10.74 0,-4.02 -1.6,-7.88 -4.47,-10.74l-38.88 -38.88c-2.97,-2.97 -6.85,-4.45 -10.73,-4.45 -3.88,0 -7.75,1.48 -10.71,4.45l-22.14 22.09c-7.99,-4.24 -16.39,-7.78 -25.2,-10.46l0.01 -31.19c0,-8.37 -6.76,-15.17 -15.16,-15.17l-55.01 0c-8.35,0 -15.19,6.8 -15.19,15.17l0 31.2c-8.77,2.68 -17.18,6.23 -25.2,10.47l-22.06 -22.06c-2.97,-2.98 -6.85,-4.45 -10.74,-4.45 -3.88,0 -7.78,1.47 -10.73,4.44l-38.91 38.87c-2.84,2.86 -4.43,6.71 -4.43,10.75 0,4.03 1.6,7.88 4.43,10.73l22.06 22.08c-4.22,8 -7.76,16.41 -10.45,25.2l-31.17 -0.01c-8.4,0 -15.19,6.8 -15.19,15.19l0 55.01c0,8.37 6.79,15.19 15.19,15.19l31.13 -0.01z"/>
    <path class="fil0" d="M603.55 581.75c24.33,-13.34 41.03,-38.88 41.03,-68.5 0,-43.25 -35.19,-78.43 -78.44,-78.43 -15.21,0 -29.3,4.55 -41.35,12.07 -7.21,28.7 -18.56,56.16 -33.42,80.01 42.11,7.91 80.74,27.08 112.18,54.85z"/>
    <path class="fil0" d="M765.86 483.57c0,-9.06 -7.35,-16.39 -16.37,-16.39l-33.66 0c-2.9,-9.48 -6.76,-18.57 -11.33,-27.2l23.82 -23.82c3.1,-3.08 4.81,-7.24 4.81,-11.58 0,-4.35 -1.7,-8.52 -4.81,-11.59l-41.93 -41.95c-3.19,-3.2 -7.41,-4.81 -11.59,-4.81 -4.19,0 -8.38,1.61 -11.57,4.81l-23.87 23.84c-8.61,-4.57 -17.69,-8.4 -27.2,-11.3l0 -33.64c0,-9.05 -7.31,-16.38 -16.35,-16.38l-59.34 -0.01c-3.97,0 -7.47,1.6 -10.32,3.95 5,18.23 7.73,38 7.73,59.09 0,13.38 -1.05,26.98 -3,40.49 11.04,-4.07 22.8,-6.62 35.25,-6.62 56.69,0 102.82,46.11 102.82,102.79 0,36.23 -18.92,67.98 -47.32,86.3 20.66,22.66 37.09,49.54 47.77,79.65 1.76,0.61 3.59,1.05 5.43,1.05 4.19,0 8.38,-1.6 11.59,-4.79l41.96 -41.95c3.08,-3.07 4.76,-7.23 4.76,-11.58 0,-4.34 -1.69,-8.5 -4.76,-11.59l-23.87 -23.84c4.57,-8.61 8.43,-17.7 11.33,-27.2l33.65 -0.01c4.33,0 8.55,-1.71 11.59,-4.81 3.07,-3.06 4.81,-7.23 4.81,-11.58l-0.03 -59.33z"/>
    <path class="fil0" d="M635.99 694.02c-25.45,-74.86 -92.68,-126.35 -170.29,-133.36 -25.99,27.52 -58.17,44.98 -94.61,44.98 -36.41,0 -68.61,-17.46 -94.58,-44.98 -77.66,7.01 -144.89,58.5 -170.34,133.37l-14.06 41.4c-4.02,11.91 -2.1,25.04 5.23,35.26 7.33,10.22 19.14,16.3 31.7,16.3l484.07 0c12.59,0 24.4,-6.07 31.72,-16.3 7.31,-10.22 9.26,-23.35 5.22,-35.26l-14.06 -41.41z"/>
    <path class="fil0" d="M244.87 376.58c0,92.86 56.53,192.5 126.21,192.5 69.71,0 126.24,-99.64 126.24,-192.5 0.01,-192.48 -252.45,-192.86 -252.45,0z"/>
   </g>
   <g>
   </g>
   <g>
   </g>
   <g>
   </g>
   <g>
   </g>
   <g>
   </g>
   <g>
   </g>
   <g>
   </g>
   <g>
   </g>
   <g>
   </g>
   <g>
   </g>
   <g>
   </g>
   <g>
   </g>
   <g>
   </g>
   <g>
   </g>
   <g>
   </g>
  </g>
 </g>
</svg>
