<?xml version="1.0" encoding="UTF-8"?>
<!DOCTYPE svg PUBLIC "-//W3C//DTD SVG 1.1//EN" "http://www.w3.org/Graphics/SVG/1.1/DTD/svg11.dtd">
<!-- Creator: CorelDRAW 2020 (64-Bit) -->
<svg xmlns="http://www.w3.org/2000/svg" xml:space="preserve" width="7.4666mm" height="7.4666mm" version="1.1" style="shape-rendering:geometricPrecision; text-rendering:geometricPrecision; image-rendering:optimizeQuality; fill-rule:evenodd; clip-rule:evenodd"
viewBox="0 0 846.66 846.66"
 xmlns:xlink="http://www.w3.org/1999/xlink"
 xmlns:xodm="http://www.corel.com/coreldraw/odm/2003">
 <defs>
  <style type="text/css">
   <![CDATA[
    .fil0 {fill:white;fill-rule:nonzero}
   ]]>
  </style>
 </defs>
 <g id="Capa_x0020_1">
  <metadata id="CorelCorpID_0Corel-Layer"/>
  <g id="Comentarios">
   <g>
    <g>
     <g>
      <path class="fil0" d="M300.19 210.26l294.38 0c-2.07,-27.15 -24.8,-48.6 -52.47,-48.6l-452.71 0c-29.03,0 -52.64,23.61 -52.64,52.64l0 233.59c0,29.03 23.61,52.64 52.64,52.64l39.75 0 0 92.73c0,6.41 3.74,12.23 9.57,14.89 2.18,1 4.51,1.49 6.82,1.49 3.86,0 7.67,-1.36 10.71,-3.99l70.47 -60.89c-2.42,-7.47 -3.73,-15.43 -3.73,-23.69l0 -233.6c-0.01,-42.57 34.63,-77.21 77.21,-77.21z"/>
      <path class="fil0" d="M757.27 237.02l-452.71 0c-29.03,0 -52.64,23.61 -52.64,52.64l0 233.59c0,29.03 23.61,52.64 52.64,52.64l264.2 0 121.66 105.12c3.04,2.63 6.86,3.99 10.72,3.99 2.3,0 4.62,-0.49 6.81,-1.48 5.83,-2.67 9.57,-8.49 9.57,-14.9l0 -92.72 39.75 0c29.03,0 52.64,-23.62 52.64,-52.64l0 -233.6c0,-29.03 -23.61,-52.64 -52.64,-52.64zm-357.42 208.16c-23.07,0 -41.78,-18.7 -41.78,-41.77 0,-23.08 18.71,-41.78 41.78,-41.78 23.07,0 41.77,18.71 41.77,41.78 0.01,23.07 -18.7,41.77 -41.77,41.77zm131.06 0c-23.07,0 -41.77,-18.7 -41.77,-41.77 0,-23.08 18.7,-41.78 41.77,-41.78 23.08,0 41.78,18.71 41.78,41.78 0,23.07 -18.7,41.77 -41.78,41.77zm131.07 0c-23.07,0 -41.78,-18.7 -41.78,-41.77 0,-23.08 18.71,-41.78 41.78,-41.78 23.07,0 41.77,18.71 41.77,41.78 0,23.07 -18.7,41.77 -41.77,41.77z"/>
     </g>
    </g>
   </g>
   <g>
   </g>
   <g>
   </g>
   <g>
   </g>
   <g>
   </g>
   <g>
   </g>
   <g>
   </g>
   <g>
   </g>
   <g>
   </g>
   <g>
   </g>
   <g>
   </g>
   <g>
   </g>
   <g>
   </g>
   <g>
   </g>
   <g>
   </g>
   <g>
   </g>
  </g>
 </g>
</svg>
