<?xml version="1.0" encoding="UTF-8"?>
<!DOCTYPE svg PUBLIC "-//W3C//DTD SVG 1.1//EN" "http://www.w3.org/Graphics/SVG/1.1/DTD/svg11.dtd">
<!-- Creator: CorelDRAW 2020 (64-Bit) -->
<svg xmlns="http://www.w3.org/2000/svg" xml:space="preserve" width="7.4666mm" height="7.4666mm" version="1.1" style="shape-rendering:geometricPrecision; text-rendering:geometricPrecision; image-rendering:optimizeQuality; fill-rule:evenodd; clip-rule:evenodd"
viewBox="0 0 846.66 846.66"
 xmlns:xlink="http://www.w3.org/1999/xlink"
 xmlns:xodm="http://www.corel.com/coreldraw/odm/2003">
 <defs>
  <style type="text/css">
   <![CDATA[
    .fil0 {fill:white}
    .fil1 {fill:#8C8C8C}
   ]]>
  </style>
 </defs>
 <g id="Capa_x0020_1">
  <metadata id="CorelCorpID_0Corel-Layer"/>
  <g id="_2896122353648">
   <path class="fil0" d="M64.83 87.51l0 671.64c0,15.03 14.97,30 30,30l657 0c15.28,0 30,-15.49 30,-30l0 -6.58c0,-14.62 -14.73,-30 -29.26,-30l-622.63 0 0 -635.06c0,-14.09 -13.86,-30 -30.72,-30 -10.4,0 -17.41,1.63 -25.08,9.31 -4.3,4.29 -9.31,12.46 -9.31,20.69z"/>
   <path class="fil0" d="M545.51 110.92c2.36,3.52 21.48,21.57 25.43,25.06 5.09,4.47 23.27,20.93 25.79,24.69 -4.71,7.03 -29.51,30.05 -36.37,38.26 -1.73,2.07 -2.05,2.76 -4.05,4.73l-23.05 23.77c-1.75,1.75 -3.18,2.95 -4.68,4.83 -4.06,5.08 -9.02,9.53 -13.63,14.18l-45.71 47.94c-2.13,2.1 -2.56,2.86 -4.42,5.09 -3.59,4.28 -10.16,11.26 -14.42,14.11l-22.51 -19.92c-7.64,-7.08 -45.57,-42.28 -49.92,-45.19 -4.51,3.02 -12.59,11.5 -16.61,16.31 -9.08,10.86 -32.08,33.59 -42.84,44.23 -2.59,2.56 -3.71,4.48 -6.2,6.96 -4.71,4.69 -8.86,8.84 -13.55,13.53l-119.27 122.9c-2.49,2.49 -3.61,4.4 -6.2,6.97 -2.45,2.41 -4.94,4.39 -6.77,7.13 2.81,4.2 26.98,27.73 31.46,30.73 2.28,-3.41 29.43,-30.58 33.84,-34.94l136.08 -140.47c2.17,-2.18 3.89,-3.71 5.67,-6.04 1.67,-2.2 3.54,-4.3 5.85,-5.85 2.4,0.64 2.88,1.72 4.57,3.47l18 16.39c2.13,1.7 2.71,2.09 4.68,4.1l18.11 16.28c4.92,3.75 9.1,8.53 13.73,12.61 4.42,3.9 9.15,8.96 14.08,12.26 3.26,-2.19 8.02,-7.67 11.15,-10.79l43.54 -45.73c2,-2 3.47,-3.48 5.49,-5.48 2.39,-2.37 3.28,-3.97 5.46,-6.24 3.86,-4 7.42,-7.39 11.37,-11.31l76.81 -80.49c1.87,-1.87 3.8,-3.54 5.46,-5.52 2.23,-2.68 3.04,-3.72 5.52,-6.19 2.94,-2.94 9.76,-8.04 10.79,-11.89 5.02,1.17 10.55,9.18 14.45,12.62 8.2,7.22 22.39,21.82 28.41,26.47 4.48,3.46 9.62,11.62 14.94,12.86 0,-7.8 19.94,-115.13 21.95,-127.3 1.35,-8.15 7.15,-35.76 7.31,-43.17 -6.86,0 -14.74,2.97 -21.28,4.33l-148.46 33.71z"/>
   <polygon class="fil0" points="617.94,699.89 694.03,699.89 694.03,314.32 617.94,314.32 "/>
   <polygon class="fil0" points="481.86,699.89 557.95,699.89 557.95,399.92 481.86,399.92 "/>
   <polygon class="fil0" points="340.66,699.89 416.75,699.89 416.75,461.37 340.66,461.37 "/>
   <path class="fil0" d="M214.81 699c6.86,1.48 28.88,0.44 37.32,0.44 12.7,0 25.41,0 38.11,0l0 -161.55 -75.43 0.3 0 160.81z"/>
   <path class="fil1" d="M214.81 699c2.7,2.07 33.91,0.89 37.32,0.89 12.92,0 25.85,0 38.77,0l0 -163.16 -73.92 -0.06c-2.56,0.6 -0.7,-0.33 -2.17,1.52l75.43 -0.3 0 161.55c-12.7,0 -25.41,0 -38.11,0 -8.44,0 -30.46,1.04 -37.32,-0.44z"/>
  </g>
 </g>
</svg>
