<?xml version="1.0" encoding="UTF-8"?>
<!DOCTYPE svg PUBLIC "-//W3C//DTD SVG 1.1//EN" "http://www.w3.org/Graphics/SVG/1.1/DTD/svg11.dtd">
<!-- Creator: CorelDRAW 2020 (64-Bit) -->
<svg xmlns="http://www.w3.org/2000/svg" xml:space="preserve" width="15.4666mm" height="15.4666mm" version="1.1" style="shape-rendering:geometricPrecision; text-rendering:geometricPrecision; image-rendering:optimizeQuality; fill-rule:evenodd; clip-rule:evenodd"
viewBox="0 0 846.66 846.66"
 xmlns:xlink="http://www.w3.org/1999/xlink"
 xmlns:xodm="http://www.corel.com/coreldraw/odm/2003">
 <defs>
  <style type="text/css">
   <![CDATA[
    .fil0 {fill:red}
   ]]>
  </style>
 </defs>
 <g id="Capa_x0020_1">
  <metadata id="CorelCorpID_0Corel-Layer"/>
  <g id="_1724208096992">
   <path class="fil0" d="M146.96 351.12l193.09 88.09c57.14,27.47 81.95,30.62 150.29,7.76 25.92,-8.67 40.82,-17.24 62.75,-28.57 36.91,-19.06 64.25,-43.24 96.67,-64.35 7.65,-4.98 9.05,-3.4 11.49,-12.54 -7.45,-0.62 -37.77,-13.94 -47.05,-17.84l-93.36 -38.81c-42.66,-17.01 -71.83,-25.97 -114.39,3.72 -5.96,4.15 -9.86,6.62 -11.96,14.48l78.62 31.93c9.6,3.82 18.98,7.01 27.13,11.32 -14.92,22.28 -47.58,28.84 -76.91,28.84 -32.72,0 -94.21,-46.26 -122.56,-52.87l66.69 -70.29c38.61,-38.61 62.22,-72.85 141.4,-39.27 16.93,7.18 31.21,13.9 48.23,21.46 17,7.55 31.43,14.28 48.2,21.5 38.89,16.75 62.79,32.14 114.04,-5.1 13.16,-9.56 11.97,-7.14 14.02,-14.82l-222.67 -94.55c-57.18,-25.73 -132.78,-25.76 -183.55,10.37l-93.01 96.85c-6.26,6.49 -9.75,9.22 -15.07,16.17l-29.41 33.07c-8.11,9.12 -40.23,44.26 -42.68,53.45z"/>
   <path class="fil0" d="M26.79 545.78c2.7,10.1 25.87,15.71 44.86,24.84l50.26 21.84c49.73,20.66 290.16,131.17 299.02,131.17 5.98,0 40.76,-16.65 49.43,-20.26l339.74 -145.73c8.58,-3.58 7.32,-0.26 9.77,-9.45 -9.31,-2.17 -39.73,-18.21 -48.53,-23.57 -15.45,-9.41 -31.53,-16.54 -47.63,-24.73 -11.71,-5.95 -9.79,-2.91 -23.65,2.96l-277.16 120.65c-6.15,0.49 -86.02,-37.61 -99.12,-43.05l-176.02 -78.73c-5,-2.43 -6.11,-3.07 -11.82,-5.29 -8.01,-3.1 -5.04,-3.54 -12.26,-0.56 -16.1,6.67 -85.98,47.38 -96.89,49.91z"/>
   <path class="fil0" d="M26.79 423.22c18.77,4.37 384.5,172.01 394.14,172 10.78,0 374.63,-163.94 398.94,-169.6 -2.5,-9.35 -4.34,-7.03 -20.83,-15.22 -8.97,-4.46 -15.06,-7.53 -24.03,-12.01 -17.21,-8.61 -30.34,-16.07 -47.24,-24.94 -16.02,-8.4 -15.33,-4.51 -50.38,10.63 -17.72,7.65 -33.78,15.36 -51.49,23.01l-204.97 88.23 -275.68 -123.28c-10.3,-4.61 -15.11,-7.89 -25.56,-2.72l-70.5 37.85c-18.91,10.55 -19.43,4.95 -22.4,16.05z"/>
  </g>
 </g>
</svg>
